# xmcd
#
# Track frame offsets: 
#        150
#        16666
#        31908
#        47692
#        63180
#        79187
#        94429
#        111385
#
# Disc length: 1686 seconds
#
# Revision: 0
# Processed by: cddbd v1.5PL3 Copyright (c) Steve Scherf et al.
# Submitted via: ExactAudioCopy v0.90b4
#
DISCID=5d069408
DTITLE=Brad Cotter - Demo CD
DYEAR=1900
DGENRE=Country
TTITLE0=You Gotta Be Country
TTITLE1=I Miss You
TTITLE2=I've Got Time
TTITLE3=Still Get A Thrill
TTITLE4=Hard To Be Rock
TTITLE5=I Meant To
TTITLE6=High On Love
TTITLE7=What Else Is There
EXTD=
EXTT0=
EXTT1=
EXTT2=
EXTT3=
EXTT4=
EXTT5=
EXTT6=
EXTT7=
PLAYORDER=
